<svg width="87" height="18" viewBox="0 0 87 18" fill="none" xmlns="http://www.w3.org/2000/svg">
<path d="M9.09985 12.848V14H0.189852V1.4H8.82985V2.552H1.52185V7.034H8.03785V8.168H1.52185V12.848H9.09985ZM23.5289 4.46C24.7169 4.46 25.6469 4.802 26.3189 5.486C27.0029 6.17 27.3449 7.178 27.3449 8.51V14H26.0669V8.636C26.0669 7.652 25.8269 6.902 25.3469 6.386C24.8789 5.87 24.2129 5.612 23.3489 5.612C22.3649 5.612 21.5909 5.918 21.0269 6.53C20.4629 7.13 20.1809 7.964 20.1809 9.032V14H18.9029V8.636C18.9029 7.652 18.6629 6.902 18.1829 6.386C17.7149 5.87 17.0429 5.612 16.1669 5.612C15.1949 5.612 14.4209 5.918 13.8449 6.53C13.2809 7.13 12.9989 7.964 12.9989 9.032V14H11.7209V4.532H12.9449V6.26C13.2809 5.684 13.7489 5.24 14.3489 4.928C14.9489 4.616 15.6389 4.46 16.4189 4.46C17.2109 4.46 17.8949 4.628 18.4709 4.964C19.0589 5.3 19.4969 5.798 19.7849 6.458C20.1329 5.834 20.6309 5.348 21.2789 5C21.9389 4.64 22.6889 4.46 23.5289 4.46ZM35.4487 4.46C36.3367 4.46 37.1407 4.664 37.8607 5.072C38.5807 5.468 39.1447 6.032 39.5527 6.764C39.9607 7.496 40.1647 8.33 40.1647 9.266C40.1647 10.214 39.9607 11.054 39.5527 11.786C39.1447 12.518 38.5807 13.088 37.8607 13.496C37.1527 13.892 36.3487 14.09 35.4487 14.09C34.6807 14.09 33.9847 13.934 33.3607 13.622C32.7487 13.298 32.2447 12.83 31.8487 12.218V17.492H30.5707V4.532H31.7947V6.404C32.1787 5.78 32.6827 5.3 33.3067 4.964C33.9427 4.628 34.6567 4.46 35.4487 4.46ZM35.3587 12.956C36.0187 12.956 36.6187 12.806 37.1587 12.506C37.6987 12.194 38.1187 11.756 38.4187 11.192C38.7307 10.628 38.8867 9.986 38.8867 9.266C38.8867 8.546 38.7307 7.91 38.4187 7.358C38.1187 6.794 37.6987 6.356 37.1587 6.044C36.6187 5.732 36.0187 5.576 35.3587 5.576C34.6867 5.576 34.0807 5.732 33.5407 6.044C33.0127 6.356 32.5927 6.794 32.2807 7.358C31.9807 7.91 31.8307 8.546 31.8307 9.266C31.8307 9.986 31.9807 10.628 32.2807 11.192C32.5927 11.756 33.0127 12.194 33.5407 12.506C34.0807 12.806 34.6867 12.956 35.3587 12.956ZM42.5299 0.643999H43.8079V14H42.5299V0.643999ZM50.9939 14.09C50.0819 14.09 49.2599 13.886 48.5279 13.478C47.7959 13.058 47.2199 12.482 46.7999 11.75C46.3799 11.018 46.1699 10.19 46.1699 9.266C46.1699 8.342 46.3799 7.514 46.7999 6.782C47.2199 6.05 47.7959 5.48 48.5279 5.072C49.2599 4.664 50.0819 4.46 50.9939 4.46C51.9059 4.46 52.7279 4.664 53.4599 5.072C54.1919 5.48 54.7619 6.05 55.1699 6.782C55.5899 7.514 55.7999 8.342 55.7999 9.266C55.7999 10.19 55.5899 11.018 55.1699 11.75C54.7619 12.482 54.1919 13.058 53.4599 13.478C52.7279 13.886 51.9059 14.09 50.9939 14.09ZM50.9939 12.956C51.6659 12.956 52.2659 12.806 52.7939 12.506C53.3339 12.194 53.7539 11.756 54.0539 11.192C54.3539 10.628 54.5039 9.986 54.5039 9.266C54.5039 8.546 54.3539 7.904 54.0539 7.34C53.7539 6.776 53.3339 6.344 52.7939 6.044C52.2659 5.732 51.6659 5.576 50.9939 5.576C50.3219 5.576 49.7159 5.732 49.1759 6.044C48.6479 6.344 48.2279 6.776 47.9159 7.34C47.6159 7.904 47.4659 8.546 47.4659 9.266C47.4659 9.986 47.6159 10.628 47.9159 11.192C48.2279 11.756 48.6479 12.194 49.1759 12.506C49.7159 12.806 50.3219 12.956 50.9939 12.956ZM65.8614 4.532L61.1274 15.134C60.7434 16.022 60.2994 16.652 59.7954 17.024C59.2914 17.396 58.6854 17.582 57.9774 17.582C57.5214 17.582 57.0954 17.51 56.6994 17.366C56.3034 17.222 55.9614 17.006 55.6734 16.718L56.2674 15.764C56.7474 16.244 57.3234 16.484 57.9954 16.484C58.4274 16.484 58.7934 16.364 59.0934 16.124C59.4054 15.884 59.6934 15.476 59.9574 14.9L60.3714 13.982L56.1414 4.532H57.4734L61.0374 12.578L64.6014 4.532H65.8614ZM75.4016 9.662H67.4816C67.5536 10.646 67.9316 11.444 68.6156 12.056C69.2996 12.656 70.1636 12.956 71.2076 12.956C71.7956 12.956 72.3356 12.854 72.8276 12.65C73.3196 12.434 73.7456 12.122 74.1056 11.714L74.8256 12.542C74.4056 13.046 73.8776 13.43 73.2416 13.694C72.6176 13.958 71.9276 14.09 71.1716 14.09C70.1996 14.09 69.3356 13.886 68.5796 13.478C67.8356 13.058 67.2536 12.482 66.8336 11.75C66.4136 11.018 66.2036 10.19 66.2036 9.266C66.2036 8.342 66.4016 7.514 66.7976 6.782C67.2056 6.05 67.7576 5.48 68.4536 5.072C69.1616 4.664 69.9536 4.46 70.8296 4.46C71.7056 4.46 72.4916 4.664 73.1876 5.072C73.8836 5.48 74.4296 6.05 74.8256 6.782C75.2216 7.502 75.4196 8.33 75.4196 9.266L75.4016 9.662ZM70.8296 5.558C69.9176 5.558 69.1496 5.852 68.5256 6.44C67.9136 7.016 67.5656 7.772 67.4816 8.708H74.1956C74.1116 7.772 73.7576 7.016 73.1336 6.44C72.5216 5.852 71.7536 5.558 70.8296 5.558ZM86.0249 9.662H78.1049C78.1769 10.646 78.5549 11.444 79.2389 12.056C79.9229 12.656 80.7869 12.956 81.8309 12.956C82.4189 12.956 82.9589 12.854 83.4509 12.65C83.9429 12.434 84.3689 12.122 84.7289 11.714L85.4489 12.542C85.0289 13.046 84.5009 13.43 83.8649 13.694C83.2409 13.958 82.5509 14.09 81.7949 14.09C80.8229 14.09 79.9589 13.886 79.2029 13.478C78.4589 13.058 77.8769 12.482 77.4569 11.75C77.0369 11.018 76.8269 10.19 76.8269 9.266C76.8269 8.342 77.0249 7.514 77.4209 6.782C77.8289 6.05 78.3809 5.48 79.0769 5.072C79.7849 4.664 80.5769 4.46 81.4529 4.46C82.3289 4.46 83.1149 4.664 83.8109 5.072C84.5069 5.48 85.0529 6.05 85.4489 6.782C85.8449 7.502 86.0429 8.33 86.0429 9.266L86.0249 9.662ZM81.4529 5.558C80.5409 5.558 79.7729 5.852 79.1489 6.44C78.5369 7.016 78.1889 7.772 78.1049 8.708H84.8189C84.7349 7.772 84.3809 7.016 83.7569 6.44C83.1449 5.852 82.3769 5.558 81.4529 5.558Z" fill="black"/>
</svg>
