<svg width="193" height="27" viewBox="0 0 193 27" fill="none" xmlns="http://www.w3.org/2000/svg">
<path d="M17.0069 26L11.5709 18.26C10.8989 18.308 10.3709 18.332 9.98691 18.332H3.75891V26H0.158906V0.799998H9.98691C13.2509 0.799998 15.8189 1.58 17.6909 3.14C19.5629 4.7 20.4989 6.848 20.4989 9.584C20.4989 11.528 20.0189 13.184 19.0589 14.552C18.0989 15.92 16.7309 16.916 14.9549 17.54L20.9309 26H17.0069ZM9.87891 15.272C12.1589 15.272 13.8989 14.78 15.0989 13.796C16.2989 12.812 16.8989 11.408 16.8989 9.584C16.8989 7.76 16.2989 6.368 15.0989 5.408C13.8989 4.424 12.1589 3.932 9.87891 3.932H3.75891V15.272H9.87891ZM36.7552 26.288C33.3952 26.288 30.7792 25.328 28.9072 23.408C27.0352 21.488 26.0992 18.728 26.0992 15.128V0.799998H29.6992V14.984C29.6992 20.384 32.0632 23.084 36.7912 23.084C39.0952 23.084 40.8592 22.424 42.0832 21.104C43.3072 19.76 43.9192 17.72 43.9192 14.984V0.799998H47.4112V15.128C47.4112 18.752 46.4752 21.524 44.6032 23.444C42.7312 25.34 40.1152 26.288 36.7552 26.288ZM76.4637 0.799998V26H73.5117L58.3917 7.208V26H54.7917V0.799998H57.7437L72.8637 19.592V0.799998H76.4637ZM100.063 19.7H86.6706L83.8986 26H80.1906L91.6026 0.799998H95.1666L106.615 26H102.835L100.063 19.7ZM98.8026 16.82L93.3666 4.472L87.9306 16.82H98.8026ZM144.642 0.799998L136.218 26H132.438L125.562 5.876L118.686 26H114.834L106.41 0.799998H110.118L116.922 21.284L124.014 0.799998H127.326L134.274 21.392L141.222 0.799998H144.642ZM164.293 19.7H150.901L148.129 26H144.421L155.833 0.799998H159.397L170.845 26H167.065L164.293 19.7ZM163.033 16.82L157.597 4.472L152.161 16.82H163.033ZM182.741 17.288V26H179.177V17.216L169.168 0.799998H173.021L181.085 14.084L189.185 0.799998H192.749L182.741 17.288Z" fill="black"/>
</svg>
